<svg width="137" height="20" viewBox="0 0 137 20" fill="none" xmlns="http://www.w3.org/2000/svg">
<path d="M0 19.2039V1.00389H3.952L9.75 12.5479L15.47 1.00389H19.422V19.2039H16.094V6.64589L11.024 16.6039H8.398L3.328 6.64589V19.2039H0Z" fill="white"/>
<path d="M28.5431 19.5159C27.2951 19.5159 26.1685 19.2299 25.1631 18.6579C24.1751 18.0859 23.3865 17.2972 22.7971 16.2919C22.2251 15.2692 21.9391 14.0906 21.9391 12.7559C21.9391 11.4212 22.2338 10.2512 22.8231 9.24589C23.4125 8.22322 24.2011 7.42589 25.1891 6.85389C26.1945 6.28189 27.3211 5.99589 28.5691 5.99589C29.7998 5.99589 30.9091 6.28189 31.8971 6.85389C32.9025 7.42589 33.6911 8.22322 34.2631 9.24589C34.8525 10.2512 35.1471 11.4212 35.1471 12.7559C35.1471 14.0906 34.8525 15.2692 34.2631 16.2919C33.6911 17.2972 32.9025 18.0859 31.8971 18.6579C30.8918 19.2299 29.7738 19.5159 28.5431 19.5159ZM28.5431 16.6299C29.4098 16.6299 30.1638 16.3092 30.8051 15.6679C31.4465 15.0092 31.7671 14.0386 31.7671 12.7559C31.7671 11.4732 31.4465 10.5112 30.8051 9.86989C30.1638 9.21122 29.4185 8.88189 28.5691 8.88189C27.6851 8.88189 26.9225 9.21122 26.2811 9.86989C25.6571 10.5112 25.3451 11.4732 25.3451 12.7559C25.3451 14.0386 25.6571 15.0092 26.2811 15.6679C26.9225 16.3092 27.6765 16.6299 28.5431 16.6299Z" fill="white"/>
<path d="M37.6027 19.2039V6.30789H40.5407L40.8007 8.49189C41.1994 7.72922 41.7714 7.12255 42.5167 6.67189C43.2794 6.22122 44.172 5.99589 45.1947 5.99589C46.7894 5.99589 48.0287 6.49855 48.9127 7.50389C49.7967 8.50922 50.2387 9.98255 50.2387 11.9239V19.2039H46.9107V12.2359C46.9107 11.1266 46.6854 10.2772 46.2347 9.68789C45.784 9.09855 45.082 8.80389 44.1287 8.80389C43.1927 8.80389 42.4214 9.13322 41.8147 9.79189C41.2254 10.4506 40.9307 11.3692 40.9307 12.5479V19.2039H37.6027Z" fill="white"/>
<path d="M59.0891 19.5159C57.8411 19.5159 56.7144 19.2299 55.7091 18.6579C54.7211 18.0859 53.9324 17.2972 53.3431 16.2919C52.7711 15.2692 52.4851 14.0906 52.4851 12.7559C52.4851 11.4212 52.7797 10.2512 53.3691 9.24589C53.9584 8.22322 54.7471 7.42589 55.7351 6.85389C56.7404 6.28189 57.8671 5.99589 59.1151 5.99589C60.3457 5.99589 61.4551 6.28189 62.4431 6.85389C63.4484 7.42589 64.2371 8.22322 64.8091 9.24589C65.3984 10.2512 65.6931 11.4212 65.6931 12.7559C65.6931 14.0906 65.3984 15.2692 64.8091 16.2919C64.2371 17.2972 63.4484 18.0859 62.4431 18.6579C61.4377 19.2299 60.3197 19.5159 59.0891 19.5159ZM59.0891 16.6299C59.9557 16.6299 60.7097 16.3092 61.3511 15.6679C61.9924 15.0092 62.3131 14.0386 62.3131 12.7559C62.3131 11.4732 61.9924 10.5112 61.3511 9.86989C60.7097 9.21122 59.9644 8.88189 59.1151 8.88189C58.2311 8.88189 57.4684 9.21122 56.8271 9.86989C56.2031 10.5112 55.8911 11.4732 55.8911 12.7559C55.8911 14.0386 56.2031 15.0092 56.8271 15.6679C57.4684 16.3092 58.2224 16.6299 59.0891 16.6299Z" fill="white"/>
<path d="M72.4646 19.2039V3.68189H67.1606V1.00389H81.1226V3.68189H75.7926V19.2039H72.4646Z" fill="white"/>
<path d="M86.842 19.5159C85.594 19.5159 84.4674 19.2299 83.462 18.6579C82.474 18.0859 81.6854 17.2972 81.096 16.2919C80.524 15.2692 80.238 14.0906 80.238 12.7559C80.238 11.4212 80.5327 10.2512 81.122 9.24589C81.7114 8.22322 82.5 7.42589 83.488 6.85389C84.4934 6.28189 85.62 5.99589 86.868 5.99589C88.0987 5.99589 89.208 6.28189 90.196 6.85389C91.2014 7.42589 91.99 8.22322 92.562 9.24589C93.1514 10.2512 93.446 11.4212 93.446 12.7559C93.446 14.0906 93.1514 15.2692 92.562 16.2919C91.99 17.2972 91.2014 18.0859 90.196 18.6579C89.1907 19.2299 88.0727 19.5159 86.842 19.5159ZM86.842 16.6299C87.7087 16.6299 88.4627 16.3092 89.104 15.6679C89.7454 15.0092 90.066 14.0386 90.066 12.7559C90.066 11.4732 89.7454 10.5112 89.104 9.86989C88.4627 9.21122 87.7174 8.88189 86.868 8.88189C85.984 8.88189 85.2214 9.21122 84.58 9.86989C83.956 10.5112 83.644 11.4732 83.644 12.7559C83.644 14.0386 83.956 15.0092 84.58 15.6679C85.2214 16.3092 85.9754 16.6299 86.842 16.6299Z" fill="white"/>
<path d="M95.9016 19.2039V0.483887H99.2296V11.5339L103.806 6.30789H107.758L102.48 12.1839L108.616 19.2039H104.456L99.2296 12.7299V19.2039H95.9016Z" fill="white"/>
<path d="M115.359 19.5159C114.059 19.5159 112.906 19.2386 111.901 18.6839C110.895 18.1292 110.107 17.3492 109.535 16.3439C108.963 15.3386 108.677 14.1772 108.677 12.8599C108.677 11.5252 108.954 10.3379 109.509 9.29789C110.081 8.25789 110.861 7.45189 111.849 6.87989C112.854 6.29055 114.033 5.99589 115.385 5.99589C116.65 5.99589 117.768 6.27322 118.739 6.82789C119.709 7.38255 120.463 8.14522 121.001 9.11589C121.555 10.0692 121.833 11.1352 121.833 12.3139C121.833 12.5046 121.824 12.7039 121.807 12.9119C121.807 13.1199 121.798 13.3366 121.781 13.5619H111.979C112.048 14.5672 112.395 15.3559 113.019 15.9279C113.66 16.4999 114.431 16.7859 115.333 16.7859C116.009 16.7859 116.572 16.6386 117.023 16.3439C117.491 16.0319 117.837 15.6332 118.063 15.1479H121.443C121.2 15.9626 120.793 16.7079 120.221 17.3839C119.666 18.0426 118.973 18.5626 118.141 18.9439C117.326 19.3252 116.399 19.5159 115.359 19.5159ZM115.385 8.69989C114.57 8.69989 113.851 8.93389 113.227 9.40189C112.603 9.85255 112.204 10.5459 112.031 11.4819H118.453C118.401 10.6326 118.089 9.95655 117.517 9.45389C116.945 8.95122 116.234 8.69989 115.385 8.69989Z" fill="white"/>
<path d="M124.112 19.2039V6.30789H127.05L127.31 8.49189C127.708 7.72922 128.28 7.12255 129.026 6.67189C129.788 6.22122 130.681 5.99589 131.704 5.99589C133.298 5.99589 134.538 6.49855 135.422 7.50389C136.306 8.50922 136.748 9.98255 136.748 11.9239V19.2039H133.42V12.2359C133.42 11.1266 133.194 10.2772 132.744 9.68789C132.293 9.09855 131.591 8.80389 130.638 8.80389C129.702 8.80389 128.93 9.13322 128.324 9.79189C127.734 10.4506 127.44 11.3692 127.44 12.5479V19.2039H124.112Z" fill="white"/>
</svg>
