<svg width="66" height="1475" fill="none" xmlns="http://www.w3.org/2000/svg"><mask id="a" maskUnits="userSpaceOnUse" x="20" y="11" width="25" height="1430"><path d="M32.5 11.5l-5.955 25.521a20 20 0 00-.029 8.964l12.479 55.078a19.991 19.991 0 01-.008 8.872l-12.574 55.068a20.002 20.002 0 00-.18 8.03L32.5 207.5l6.971 68.321a20.002 20.002 0 01-1.535 9.959l-14.67 33.972a19.996 19.996 0 00-1.416 10.901L32.5 401.5l10.267 76.07a19.997 19.997 0 01-1.404 10.475L27.49 520.802a19.997 19.997 0 00-1.486 9.776L32.5 596l5.625 65.627a20.002 20.002 0 01-1.116 8.501l-9.935 27.512a20.003 20.003 0 00-1.07 8.968L32.5 766l5.736 77.919a20.006 20.006 0 01-.734 7.03l-14.348 49.565a20.003 20.003 0 00-.627 8.102L32.5 986.5l5.402 63.02a20.03 20.03 0 01-3.286 12.81l-3.2 4.8a19.985 19.985 0 00-3.277 12.9L32.5 1128l5.31 50.89a20.03 20.03 0 01-2.71 12.32l-7.29 12.23a20.019 20.019 0 00-2.74 12l7.43 84.06 5.504 65.59c.324 3.86-.477 7.72-2.306 11.13l-5.303 9.88a20.017 20.017 0 00-2.273 11.49l4.378 42.91" stroke="#23DC5C" stroke-width="3"/></mask><g mask="url(#a)"><path fill="url(#paint0_linear)" d="M0 1h67v1486H0z"/></g><circle cx="33" cy="11" r="9.5" fill="#F8F8F8" stroke="#F2B459" stroke-width="3"/><circle cx="29" cy="187" r="9.5" fill="#F8F8F8" stroke="#F69E56" stroke-width="3"/><circle cx="27" cy="363" r="9.5" fill="#F8F8F8" stroke="#FC8B5C" stroke-width="3"/><circle cx="27" cy="541" r="9.5" fill="#F8F8F8" stroke="#FD6C51" stroke-width="3"/><circle cx="27" cy="719" r="9.5" fill="#F8F8F8" stroke="#FB5A55" stroke-width="3"/><circle cx="24" cy="896" r="9.5" fill="#F8F8F8" stroke="#F7435B" stroke-width="3"/><circle cx="29" cy="1073" r="9.5" fill="#F8F8F8" stroke="#D54276" stroke-width="3"/><circle cx="28" cy="1250" r="9.5" fill="#F8F8F8" stroke="#9A48A4" stroke-width="3"/><circle cx="33" cy="1442" r="10.5" fill="#5051DE" fill-opacity=".6" stroke="#5051DE"/><circle cx="33" cy="1442" r="22" fill="#5051DE" fill-opacity=".4"/><circle cx="33" cy="1442" r="33" fill="#5051DE" fill-opacity=".3"/><circle cx="33" cy="1442" r="4.5" fill="#F3F3F3" stroke="#5051DE"/><defs><linearGradient id="paint0_linear" x1="33.5" y1="1" x2="33.5" y2="1487" gradientUnits="userSpaceOnUse"><stop stop-color="#F1B85A"/><stop offset=".328" stop-color="#FF764F"/><stop offset=".684" stop-color="#F73E5C"/><stop offset="1" stop-color="#5350DB"/></linearGradient></defs></svg>