<svg width="1048" height="823" fill="none" xmlns="http://www.w3.org/2000/svg"><path d="M0 818c32.058 0 74 2.499 126.5-31.001 80.269-51.219 80.514-77.123 151-83 70.486-5.877 109.728 16.667 183-48.5 42.292-37.613 85.5-82.5 190.5-82.5 122.225 0 138-139.5 244-195s105.7-158.75 120-215.968" stroke="url(#paint0_linear)" stroke-width="4"/><path d="M901 133v241M1015 0v163M777 418v82M528 123v481m124-301v268M277 259v446M152 461v315M15 671v147m387-348v221" stroke="#131823" stroke-width="2"/><mask id="a" maskUnits="userSpaceOnUse" x="14" y="0" width="1002" height="818"><path d="M901 133v241M1015 0v163M777 418v82M528 123v481m124-301v268M277 259v446M152 461v315M15 671v147m387-348v221" stroke="#131823" stroke-width="2"/></mask><g mask="url(#a)"><path fill="url(#paint1_linear)" d="M2-35h1031v868H2z"/></g><circle cx="1015" cy="163" r="10.5" fill="#5051DE" fill-opacity=".6" stroke="#5051DE"/><circle cx="1015" cy="163" r="22" fill="#5051DE" fill-opacity=".4"/><circle cx="1015" cy="163" r="33" fill="#5051DE" fill-opacity=".3"/><circle cx="1015" cy="163" r="4.5" fill="#F3F3F3" stroke="#5051DE"/><circle cx="14.5" cy="817.5" r="5" fill="#F3F3F3" stroke="#EFBE5C"/><circle cx="152.5" cy="769.5" r="5" fill="#F3F3F3" stroke="#F5A756"/><circle cx="277.5" cy="704.5" r="5" fill="#F3F3F3" stroke="#FB9051"/><circle cx="402.5" cy="692.5" r="5" fill="#F3F3F3" stroke="#FF804E"/><circle cx="527.5" cy="602.5" r="5" fill="#F3F3F3" stroke="#FF6950"/><circle cx="652.5" cy="573.5" r="5" fill="#F3F3F3" stroke="#FF5852"/><path d="M906.5 373.5a5 5 0 11-10.001-.001 5 5 0 0110.001.001z" fill="#F3F3F3" stroke="#C93F83"/><path d="M782.5 499.5a5 5 0 11-10.001-.001 5 5 0 0110.001.001z" fill="#F3F3F3" stroke="#FF4355"/><defs><linearGradient id="paint0_linear" x1="1042.5" y1="138.493" x2="-37.004" y2="803.992" gradientUnits="userSpaceOnUse"><stop stop-color="#5051DE"/><stop offset=".297" stop-color="#FF3D55"/><stop offset=".682" stop-color="#FF834E"/><stop offset="1" stop-color="#EFBE5C"/></linearGradient><linearGradient id="paint1_linear" x1="1060.93" y1="-66.144" x2="-175.407" y2="518.978" gradientUnits="userSpaceOnUse"><stop stop-color="#5D44E0"/><stop offset=".297" stop-color="#FF3D55"/><stop offset=".682" stop-color="#FF834E"/><stop offset="1" stop-color="#EFBE5C"/></linearGradient></defs></svg>