<svg width="41" height="57" fill="none" xmlns="http://www.w3.org/2000/svg"><path opacity=".3" d="M1.6 54.928v1h37.676V45.756H18.664l11.308-10.02c0-.001 0-.002.002-.002 1.984-1.742 3.653-3.338 5.001-4.784 1.42-1.52 2.497-3.17 3.22-4.95l.002-.005c.733-1.832 1.079-4.044 1.079-6.6 0-3.538-.805-6.705-2.441-9.468-1.6-2.768-3.792-4.935-6.564-6.486-2.782-1.582-5.93-2.361-9.419-2.361-3.71 0-7.028.735-9.928 2.236-2.896 1.499-5.172 3.618-6.806 6.35-1.643 2.746-2.446 5.941-2.446 9.55v1H12.63l-.03-1.03a7.364 7.364 0 01.952-3.909 7.741 7.741 0 012.844-2.906h0l.005-.003c1.22-.736 2.633-1.116 4.271-1.116 2.317 0 4.13.768 5.532 2.273l.005.005.005.006c1.435 1.498 2.17 3.39 2.17 5.752 0 1.085-.296 2.25-.935 3.506h0l-.007.013c-.594 1.21-1.682 2.563-3.333 4.052l-.003.002-22.171 19.76-.335.299v8.008z" stroke="#000" stroke-width="2"/></svg>