<svg width="40" height="57" fill="none" xmlns="http://www.w3.org/2000/svg"><path opacity=".3" d="M29.216 53.613l.002-.002c2.834-1.593 5.095-3.764 6.77-6.503 1.712-2.76 2.56-5.873 2.56-9.308 0-2.745-.517-5.318-1.56-7.708A16.318 16.318 0 0032.429 24c-1.573-1.311-3.396-2.282-5.457-2.92l10.405-9.99.308-.296V1.16H3.896v10.172h19.75l-12.92 11.056-.632.541.417.72 3.96 6.84.49.845.856-.47c1.359-.745 2.695-1.1 4.019-1.1 2.372 0 4.237.772 5.686 2.284 1.464 1.527 2.206 3.421 2.206 5.752 0 2.295-.758 4.16-2.263 5.665l-.005.005c-1.482 1.503-3.335 2.272-5.633 2.294h-.004c-1.681.021-3.231-.453-4.673-1.442-1.402-.984-2.38-2.38-2.922-4.245l-.274-.943-.947.257-8.388 2.268-.99.267.293.984c.784 2.632 2.067 4.948 3.85 6.934h0l.009.01a18.791 18.791 0 006.346 4.522c2.434 1.065 5.02 1.596 7.745 1.596 3.4 0 6.521-.783 9.344-2.359z" stroke="#000" stroke-width="2"/></svg>