<svg width="40" height="58" fill="none" xmlns="http://www.w3.org/2000/svg"><path opacity=".3" d="M19.412 56.08c3.43 0 6.602-.822 9.494-2.47 2.898-1.639 5.238-3.839 7.007-6.594l.003-.003c1.786-2.806 2.676-5.934 2.676-9.357 0-3.392-.755-6.455-2.287-9.164-1.502-2.723-3.598-4.87-6.273-6.424-2.667-1.563-5.713-2.332-9.108-2.332-1.418 0-2.874.206-4.366.61l-.004.002c-.89.245-1.75.564-2.584.956l.622-10.008H35.1V1.16H5.004l-.054.942-1.584 27.432-.045.774.738.236 7.416 2.376.634.203.432-.506c.594-.697 1.482-1.395 2.71-2.077 1.132-.617 2.61-.956 4.485-.956 1.483 0 2.832.363 4.066 1.087a8.221 8.221 0 012.96 2.925h0l.006.011c.738 1.203 1.112 2.545 1.112 4.049 0 1.482-.362 2.83-1.085 4.063a8.513 8.513 0 01-2.966 2.963c-1.201.717-2.557 1.082-4.093 1.082-1.72 0-3.343-.526-4.89-1.613-1.48-1.08-2.452-2.532-2.925-4.4l-.248-.983-.98.262-8.351 2.232-.98.262.276.976c.757 2.675 1.997 5.046 3.724 7.103h0l.009.01a18.751 18.751 0 006.233 4.75l.004.002c2.44 1.144 5.046 1.715 7.804 1.715z" stroke="#000" stroke-width="2"/></svg>