<svg width="595" height="150" fill="none" xmlns="http://www.w3.org/2000/svg"><path d="M0 147h22.6V54.7L66.7 147h9.6l44.2-92.3V147H143V3h-21.7L71.5 105 21.7 3H0v144zm231.994 3c14.4 0 26.733-3.133 37-9.4 10.333-6.333 18.233-15.133 23.7-26.4 5.533-11.267 8.3-24.333 8.3-39.2 0-14.933-2.767-28-8.3-39.2-5.467-11.267-13.367-20.033-23.7-26.3-10.267-6.333-22.6-9.5-37-9.5-14.334 0-26.667 3.167-37 9.5-10.267 6.267-18.167 15.033-23.7 26.3-5.467 11.2-8.2 24.267-8.2 39.2 0 14.867 2.733 27.933 8.2 39.2 5.533 11.267 13.433 20.067 23.7 26.4 10.333 6.267 22.666 9.4 37 9.4zm0-22.7c-14.467-.2-25.334-5.033-32.6-14.5-7.267-9.467-10.867-22.067-10.8-37.8.066-10.533 1.7-19.733 4.9-27.6 3.2-7.867 8-13.967 14.4-18.3 6.4-4.4 14.433-6.533 24.1-6.4 14.533.2 25.4 5.033 32.6 14.5 7.266 9.467 10.9 22.067 10.9 37.8 0 10.467-1.634 19.667-4.9 27.6-3.2 7.867-8.034 13.967-14.5 18.3-6.4 4.333-14.434 6.467-24.1 6.4zm88.904 19.7h24.4V45.5l66.8 101.5h24.4V3h-24.4v101.5L345.298 3h-24.4v144zm204.455 3c14.4 0 26.733-3.133 37-9.4 10.333-6.333 18.233-15.133 23.7-26.4 5.533-11.267 8.3-24.333 8.3-39.2 0-14.933-2.767-28-8.3-39.2-5.467-11.267-13.367-20.033-23.7-26.3-10.267-6.333-22.6-9.5-37-9.5-14.333 0-26.667 3.167-37 9.5-10.267 6.267-18.167 15.033-23.7 26.3-5.467 11.2-8.2 24.267-8.2 39.2 0 14.867 2.733 27.933 8.2 39.2 5.533 11.267 13.433 20.067 23.7 26.4 10.333 6.267 22.667 9.4 37 9.4zm0-22.7c-14.467-.2-25.333-5.033-32.6-14.5-7.267-9.467-10.867-22.067-10.8-37.8.067-10.533 1.7-19.733 4.9-27.6 3.2-7.867 8-13.967 14.4-18.3 6.4-4.4 14.433-6.533 24.1-6.4 14.533.2 25.4 5.033 32.6 14.5 7.267 9.467 10.9 22.067 10.9 37.8 0 10.467-1.633 19.667-4.9 27.6-3.2 7.867-8.033 13.967-14.5 18.3-6.4 4.333-14.433 6.467-24.1 6.4z" opacity=".06" fill="#2889FF"/></svg>