<svg width="16" height="15" fill="none" xmlns="http://www.w3.org/2000/svg"><path d="M2.279 10.216v3.856a.74.74 0 00.216.516c.136.136.32.212.512.212h4.45v-4.584H2.278zM8.755 14.8h4.449a.724.724 0 00.512-.212.74.74 0 00.216-.516v-3.856H8.755V14.8zm5.763-11.128h-1.457c.15-.306.228-.642.23-.984a2.308 2.308 0 00-.668-1.618A2.26 2.26 0 0011.019.4a3.31 3.31 0 00-1.75.603 3.361 3.361 0 00-1.164 1.453 3.361 3.361 0 00-1.162-1.453A3.31 3.31 0 005.193.4a2.26 2.26 0 00-1.605.67 2.308 2.308 0 00-.668 1.618c.002.342.08.678.23.984H1.693c-.396 0-.713.472-.713 1.048v3.144c0 .576.317 1.048.713 1.048h5.763v-5.24h1.299v5.24h5.763c.396 0 .712-.472.712-1.048V4.72c0-.576-.316-1.048-.712-1.048zm-9.326 0a.964.964 0 01-.744-.253.984.984 0 01-.317-.727.993.993 0 01.317-.726.972.972 0 01.744-.254c1.108 0 1.734 1.152 2.043 1.96H5.192zm5.827 0H8.976c.309-.8.934-1.96 2.043-1.96a.964.964 0 01.744.254.984.984 0 01.317.726.992.992 0 01-.317.727.97.97 0 01-.744.253z" fill="#fff"/></svg>