<svg width="16" height="15" viewBox="0 0 16 15" fill="none" xmlns="http://www.w3.org/2000/svg">
<path d="M2.2788 10.2164V14.0724C2.28089 14.2662 2.35854 14.4514 2.4949 14.5877C2.63127 14.724 2.81533 14.8004 3.00714 14.8004H7.4563V10.2164H2.2788ZM8.75464 14.8004H13.2038C13.3956 14.8004 13.5797 14.724 13.716 14.5877C13.8524 14.4514 13.9301 14.2662 13.9321 14.0724V10.2164H8.75464V14.8004ZM14.518 3.67239H13.0613C13.2105 3.36616 13.289 3.02972 13.2909 2.68839C13.2888 2.08084 13.0485 1.4989 12.6226 1.07004C12.1967 0.641188 11.62 0.400387 11.0188 0.400391C10.3907 0.43049 9.78389 0.639515 9.26837 1.00332C8.75286 1.36713 8.3497 1.87088 8.10547 2.45639C7.86123 1.87088 7.45808 1.36713 6.94256 1.00332C6.42705 0.639515 5.82021 0.43049 5.19214 0.400391C4.59091 0.400387 4.01419 0.641188 3.58832 1.07004C3.16245 1.4989 2.92215 2.08084 2.92005 2.68839C2.92193 3.02972 3.00043 3.36616 3.14964 3.67239H1.69297C1.29714 3.67239 0.980469 4.14439 0.980469 4.72039V7.86439C0.980469 8.44039 1.29714 8.91239 1.69297 8.91239H7.4563V3.67239H8.75464V8.91239H14.518C14.9138 8.91239 15.2305 8.44039 15.2305 7.86439V4.72039C15.2305 4.14439 14.9138 3.67239 14.518 3.67239ZM5.19214 3.67239C5.05742 3.6847 4.92164 3.66852 4.79345 3.62486C4.66527 3.58121 4.54749 3.51105 4.44762 3.41884C4.34776 3.32664 4.268 3.21443 4.21343 3.08935C4.15886 2.96428 4.13068 2.82908 4.13068 2.69239C4.13068 2.5557 4.15886 2.4205 4.21343 2.29543C4.268 2.17035 4.34776 2.05814 4.44762 1.96594C4.54749 1.87374 4.66527 1.80357 4.79345 1.75992C4.92164 1.71626 5.05742 1.70008 5.19214 1.71239C6.30047 1.71239 6.92589 2.86439 7.23464 3.67239H5.19214ZM11.0188 3.67239H8.9763C9.28505 2.87239 9.91047 1.71239 11.0188 1.71239C11.1535 1.70008 11.2893 1.71626 11.4175 1.75992C11.5457 1.80357 11.6635 1.87374 11.7633 1.96594C11.8632 2.05814 11.9429 2.17035 11.9975 2.29543C12.0521 2.4205 12.0803 2.5557 12.0803 2.69239C12.0803 2.82908 12.0521 2.96428 11.9975 3.08935C11.9429 3.21443 11.8632 3.32664 11.7633 3.41884C11.6635 3.51105 11.5457 3.58121 11.4175 3.62486C11.2893 3.66852 11.1535 3.6847 11.0188 3.67239Z" fill="white"/>
</svg>
