<svg width="19" height="15" viewBox="0 0 19 15" fill="none" xmlns="http://www.w3.org/2000/svg">
<path fill-rule="evenodd" clip-rule="evenodd" d="M1.73741 6.4574C6.56923 4.34056 9.79121 2.945 11.4033 2.27074C16.0063 0.345581 16.9627 0.0111605 17.5861 0.000117741C17.7232 -0.00231099 18.0298 0.031858 18.2284 0.19389C18.3961 0.330707 18.4422 0.515527 18.4643 0.645244C18.4864 0.774961 18.5139 1.07046 18.492 1.30136C18.2426 3.93675 17.1633 10.3322 16.6142 13.2838C16.3818 14.5328 15.9244 14.9516 15.4815 14.9926C14.5189 15.0816 13.788 14.3529 12.8558 13.7384C11.397 12.7769 10.5729 12.1783 9.15691 11.24C7.52048 10.1556 8.58131 9.55963 9.5139 8.58562C9.75797 8.33071 13.9988 4.45188 14.0809 4.10001C14.0912 4.05601 14.1007 3.89197 14.0038 3.80535C13.9069 3.71873 13.7639 3.74835 13.6606 3.77191C13.5143 3.8053 11.1839 5.35418 6.66938 8.41854C6.0079 8.87529 5.40875 9.09783 4.87193 9.08617C4.28013 9.07331 3.14175 8.7497 2.29548 8.47308C1.25749 8.1338 0.432524 7.95442 0.504361 7.37821C0.541777 7.07809 0.952792 6.77115 1.73741 6.4574Z" fill="white"/>
</svg>
