<svg width="25" height="28" fill="none" xmlns="http://www.w3.org/2000/svg"><path d="M2.101 27.498c-.256.005-.51-.04-.75-.129l12.081-12.085 4 4.004-13.883 7.8a3 3 0 01-1.448.41zm-1.746-.997a2.85 2.85 0 01-.354-1.455V2.989a3.195 3.195 0 01.15-.987l12.35 12.352L.35 26.504l.004-.003zm18.269-7.887l-4.262-4.259 4.7-4.697 4.174 2.344a2.361 2.361 0 011.392 2.008 2.361 2.361 0 01-1.393 2.01l-4.611 2.594zm-5.192-5.195L.922.912C1.266.657 1.682.52 2.11.52c.504.017.996.16 1.432.415l14.327 8.052-4.434 4.432h-.002z" fill="#fff"/></svg>