<svg width="26" height="29" fill="none" xmlns="http://www.w3.org/2000/svg"><path d="M8.642 28.51a3.687 3.687 0 01-2.48-1.149 14.85 14.85 0 01-2.065-2.471 17.11 17.11 0 01-2.189-4.34 15.98 15.98 0 01-.916-5.168 9.476 9.476 0 011.239-4.938 7.32 7.32 0 012.595-2.626 6.994 6.994 0 013.516-.993 8.265 8.265 0 012.714.631 8.75 8.75 0 002.155.633 12.738 12.738 0 002.389-.75 8.684 8.684 0 012.854-.589c.131 0 .26 0 .384.015a6.924 6.924 0 015.4 2.85 6.029 6.029 0 00-3.184 5.455 6.033 6.033 0 001.976 4.535 6.566 6.566 0 001.973 1.294c-.15.45-.322.886-.505 1.323-.416.968-.93 1.892-1.532 2.756a14.16 14.16 0 01-1.974 2.388 3.855 3.855 0 01-2.538 1.114 6.375 6.375 0 01-2.343-.559 6.749 6.749 0 00-2.52-.56 6.967 6.967 0 00-2.595.557c-.709.32-1.467.52-2.242.59l-.112.003zm4.725-21.76c-.113 0-.226 0-.338-.013a4.35 4.35 0 01-.037-.539 6.255 6.255 0 011.65-4.032A6.417 6.417 0 0116.665.652c.717-.368 1.5-.59 2.304-.652.022.197.022.389.022.572a6.108 6.108 0 01-1.56 3.99 5.464 5.464 0 01-4.065 2.188z" fill="#fff"/></svg>