<svg width="52" height="52" fill="none" xmlns="http://www.w3.org/2000/svg"><path d="M25.994 37c-3.005 0-3.36-.016-4.532-.067a8.053 8.053 0 01-2.67-.549 5.638 5.638 0 01-3.212-3.21 8.03 8.03 0 01-.512-2.667C15 29.338 15 28.955 15 25.978c0-3.01.016-3.36.068-4.525a8.03 8.03 0 01.512-2.664 5.627 5.627 0 013.217-3.21 7.988 7.988 0 012.667-.513C22.631 15 23.014 15 25.994 15c3.03 0 3.378.016 4.532.066.914.017 1.819.19 2.675.512a5.633 5.633 0 013.216 3.21c.327.866.5 1.78.515 2.705.068 1.169.068 1.55.068 4.527 0 2.976-.017 3.366-.068 4.521a8.04 8.04 0 01-.514 2.67 5.644 5.644 0 01-3.217 3.21 8.089 8.089 0 01-2.67.512C29.364 37 28.98 37 25.994 37zm-.042-20.07c-2.988 0-3.298.016-4.464.068a6.1 6.1 0 00-2.04.38 3.648 3.648 0 00-2.099 2.088 6.113 6.113 0 00-.38 2.057c-.065 1.182-.065 1.492-.065 4.455 0 2.927.011 3.282.065 4.457.011.696.14 1.384.38 2.037a3.651 3.651 0 002.1 2.087 6.018 6.018 0 002.039.38c1.182.068 1.494.068 4.464.068 2.997 0 3.307-.015 4.464-.068a6.072 6.072 0 002.04-.38 3.662 3.662 0 002.089-2.084 6.14 6.14 0 00.38-2.06h.013c.053-1.165.053-1.476.053-4.456 0-2.98-.014-3.294-.066-4.459a6.16 6.16 0 00-.38-2.034 3.662 3.662 0 00-2.09-2.089 6.046 6.046 0 00-2.04-.379c-1.18-.067-1.49-.067-4.463-.067zm.042 14.682a5.647 5.647 0 01-5.22-3.478 5.633 5.633 0 011.221-6.146 5.653 5.653 0 016.155-1.225 5.639 5.639 0 013.487 5.209 5.65 5.65 0 01-5.643 5.64zm0-9.302a3.662 3.662 0 00-3.665 3.66 3.663 3.663 0 003.665 3.659 3.662 3.662 0 003.665-3.66 3.67 3.67 0 00-3.665-3.659zm5.863-.87a1.316 1.316 0 11.008-2.631 1.316 1.316 0 01-.008 2.631z" fill="#fff"/><rect x=".5" y=".5" width="51" height="51" rx="25.5" stroke="#fff" stroke-opacity=".12"/></svg>