<svg width="52" height="52" fill="none" xmlns="http://www.w3.org/2000/svg"><path fill-rule="evenodd" clip-rule="evenodd" d="M13.65 26.04c6.442-2.963 10.738-4.917 12.888-5.861 6.137-2.695 7.412-3.163 8.244-3.179.182-.003.591.045.856.271.223.192.285.45.314.632.03.182.067.596.037.919-.332 3.69-1.771 12.643-2.503 16.775-.31 1.749-.92 2.335-1.51 2.393-1.284.124-2.259-.896-3.502-1.756-1.945-1.346-3.044-2.184-4.931-3.498-2.182-1.518-.768-2.352.476-3.716.325-.357 5.98-5.787 6.089-6.28.014-.062.026-.291-.103-.412-.13-.122-.32-.08-.457-.047-.196.046-3.303 2.215-9.322 6.505-.882.64-1.681.951-2.397.935-.789-.018-2.307-.471-3.435-.859-1.384-.475-2.484-.726-2.388-1.532.05-.42.598-.85 1.644-1.29z" fill="#fff"/><rect x=".5" y=".5" width="51" height="51" rx="25.5" stroke="#fff" stroke-opacity=".12"/></svg>