<svg width="52" height="52" fill="none" xmlns="http://www.w3.org/2000/svg"><path d="M33.997 20.687a4.3 4.3 0 001.887-2.374 8.58 8.58 0 01-2.725 1.041 4.3 4.3 0 00-7.316 3.915 12.184 12.184 0 01-8.844-4.484 4.3 4.3 0 001.328 5.73 4.275 4.275 0 01-1.943-.538v.054a4.294 4.294 0 003.443 4.208 4.301 4.301 0 01-1.938.074 4.3 4.3 0 004.009 2.98 8.61 8.61 0 01-5.33 1.837c-.343 0-.685-.02-1.025-.059a12.147 12.147 0 006.579 1.928 12.127 12.127 0 0012.21-12.211c0-.186-.004-.371-.013-.555a8.72 8.72 0 002.142-2.222 8.58 8.58 0 01-2.464.676z" fill="#fff"/><rect x=".5" y=".5" width="51" height="51" rx="25.5" stroke="#fff" stroke-opacity=".12"/></svg>