<svg width="52" height="52" fill="none" xmlns="http://www.w3.org/2000/svg"><path fill-rule="evenodd" clip-rule="evenodd" d="M38.364 21.041c.201-.587 0-1.014-.886-1.014h-2.945c-.744 0-1.086.375-1.287.775 0 0-1.516 3.416-3.632 5.63-.685.641-1 .854-1.372.854-.2 0-.457-.213-.457-.8v-5.472c0-.693-.23-1.014-.859-1.014h-4.632c-.457 0-.743.321-.743.641 0 .668 1.058.827 1.172 2.696v4.056c0 .88-.17 1.041-.544 1.041-1 0-3.43-3.443-4.889-7.366-.287-.774-.572-1.068-1.316-1.068h-2.973c-.858 0-1.001.375-1.001.775 0 .72 1 4.35 4.66 9.154 2.431 3.282 5.892 5.044 9.009 5.044 1.886 0 2.116-.401 2.116-1.068v-2.482c0-.8.17-.934.771-.934.429 0 1.202.213 2.947 1.788C33.504 34.145 33.847 35 34.963 35h2.944c.859 0 1.259-.402 1.03-1.175-.257-.773-1.23-1.895-2.488-3.229-.687-.748-1.716-1.575-2.03-1.975-.429-.534-.314-.748 0-1.228-.029 0 3.574-4.75 3.945-6.352z" fill="#fff"/><rect x=".5" y=".5" width="51" height="51" rx="25.5" stroke="#fff" stroke-opacity=".12"/></svg>