<svg width="767" height="266" fill="none" xmlns="http://www.w3.org/2000/svg"><path opacity=".2" stroke="#fff" stroke-width=".815" d="M1.176 21.706h888.03M1.177 129.946h888.03M1.177 93.866h888.03M1.177 57.786h888.03M1.177 166.025h888.03"/><path stroke="#3D3C41" stroke-width=".815" d="M1.177 202.105h888.03"/><path opacity=".2" stroke="#fff" stroke-width=".815" d="M1.177 238.185h888.03"/><path d="M121.331 94.918c-47.316 6.295-79.926 43.748-119.581 49.89v15.149h901.589V68.565c-44.147 0-50.038 27.913-70.813 20.229-20.775-7.684-42.597-60.514-66.834-57.72-24.238 2.794-37.539-71.347-88.611-64.361-51.071 6.985-89.898 131.052-130.633 113.594C505.713 62.849 499.312 1.746 455.125-3.9c-44.186-5.646-62.241 76.695-103.235 74.021-40.994-2.674-51.937 66.926-93.772 60.47-50.695-7.822-46.283-12.204-68.824-22.351-22.541-10.147-42.744-16.677-67.963-13.322z" fill="url(#paint0_linear)"/><path opacity=".3" fill="url(#paint1_radial)" d="M137.348 166.434H381.76v70.996H137.348z"/><path opacity=".3" fill="url(#paint2_radial)" d="M1 203h136v35H1z"/><path opacity=".7" d="M838.073 6.285c-37.325 6.985-65.7 131.052-95.471 113.594l-48.909 137.336 300.26-30.26-42.275-98.589c-15.183-7.684-31.131-60.514-48.845-57.72C885.12 73.44 875.398-.7 838.073 6.285z" fill="url(#paint3_linear)"/><path d="M676.478 35.194c-32.22-5.657-45.385 76.855-75.276 74.175l-15.137 3.793-19.943 29.74-19.095 24.492 49.646 97.967 194.766-18.077-19.095-144.036-11.881 11.663-8.486 4.665h-8.91c-29.703-17.494-34.37-78.724-66.589-84.382z" fill="url(#paint4_linear)"/><mask id="a" maskUnits="userSpaceOnUse" x="343" y="4" width="562" height="182"><path d="M344.516 183.892c28.999-6.125 52.845-43.476 87.447-49.754 18.442-3.346 33.216 3.167 49.7 13.286s13.257 14.489 50.329 22.29c30.593 6.438 38.596-62.972 68.574-60.305 29.978 2.667 43.844-80.785 75.494-73.818 35.717 0 41.249 85.717 73.166 83.976 31.917-1.741 51.799-106.317 89.146-113.283 37.348-6.967 47.075 66.971 64.799 64.185" stroke="url(#paint5_linear)" stroke-width="2.328" stroke-linecap="square" stroke-linejoin="round"/></mask><g mask="url(#a)"><path d="M344.516 183.892c28.999-6.125 52.845-43.476 87.447-49.754 18.442-3.346 33.216 3.167 49.7 13.286s13.257 14.489 50.329 22.29c30.593 6.438 38.596-62.972 68.574-60.305 29.978 2.667 43.844-80.785 75.494-73.818 35.717 0 41.249 85.717 73.166 83.976 31.917-1.741 51.799-106.317 89.146-113.283 37.348-6.967 47.075 66.971 64.799 64.185" stroke="url(#paint6_linear)" stroke-width="2.328" stroke-linecap="square" stroke-linejoin="round"/></g><path d="M137.348 202.514H1.176" stroke="url(#paint7_linear)" stroke-width="2.328" stroke-linecap="square" stroke-linejoin="round"/><g filter="url(#filter0_dd)"><rect x="131.527" y="195.531" width="12.803" height="12.803" rx="6.401" fill="#FFA849"/><rect x="132.691" y="196.695" width="10.475" height="10.475" rx="5.237" stroke="#fff" stroke-width="2.328"/></g><path stroke="#FFA849" stroke-width=".996" stroke-dasharray="4.38 4.38" d="M137.846 202.514v34.916"/><path stroke="#000AFF" stroke-width=".996" stroke-dasharray="4.38 4.38" d="M382.26 160.615v76.815"/><path d="M381.762 166.434H137.35" stroke="url(#paint8_linear)" stroke-width="2.328" stroke-linecap="square" stroke-linejoin="round"/><g filter="url(#filter1_dd)"><rect x="375.94" y="159.451" width="12.803" height="12.803" rx="6.401" fill="#000AFF"/><rect x="377.104" y="160.615" width="10.475" height="10.475" rx="5.237" stroke="#fff" stroke-width="2.328"/></g><path stroke="#F41D46" stroke-width=".996" stroke-dasharray="4.38 4.38" d="M642.963 62.849v174.579"/><g filter="url(#filter2_dd)"><rect x="635.48" y="56.027" width="12.803" height="12.803" rx="6.401" fill="#F41D46"/><rect x="636.644" y="57.191" width="10.475" height="10.475" rx="5.237" stroke="#E9E9E9" stroke-width="2.328"/></g><defs><linearGradient id="paint0_linear" x1="452.544" y1="-33.752" x2="452.544" y2="240.984" gradientUnits="userSpaceOnUse"><stop stop-color="#5200FF" stop-opacity=".1"/><stop offset=".999" stop-opacity="0"/></linearGradient><linearGradient id="paint3_linear" x1="790.661" y1="5.82" x2="848.019" y2="122.127" gradientUnits="userSpaceOnUse"><stop stop-color="#F51D46" stop-opacity=".24"/><stop offset="1" stop-opacity="0"/></linearGradient><linearGradient id="paint4_linear" x1="672.203" y1="39.103" x2="672.203" y2="127" gradientUnits="userSpaceOnUse"><stop stop-color="#F51D46" stop-opacity=".24"/><stop offset="1" stop-opacity="0"/></linearGradient><linearGradient id="paint5_linear" x1="674.173" y1="5.82" x2="674.173" y2="183.405" gradientUnits="userSpaceOnUse"><stop stop-color="#F51D46"/><stop offset="1" stop-color="#45BED1"/></linearGradient><linearGradient id="paint6_linear" x1="903.171" y1="158.869" x2="344.516" y2="158.869" gradientUnits="userSpaceOnUse"><stop offset=".245" stop-color="#F51D46" stop-opacity="0"/><stop offset=".359" stop-color="#F51D46"/><stop offset=".807" stop-color="#45BED1"/><stop offset=".927" stop-color="#45BED1" stop-opacity="0"/></linearGradient><linearGradient id="paint7_linear" x1="1.201" y1="203.016" x2="137.435" y2="203.016" gradientUnits="userSpaceOnUse"><stop stop-color="#FFC34E" stop-opacity="0"/><stop offset=".104" stop-color="#FFC34E"/><stop offset=".865" stop-color="#FF3737"/><stop offset="1" stop-color="#FF3737" stop-opacity="0"/></linearGradient><linearGradient id="paint8_linear" x1="137.396" y1="165.931" x2="381.918" y2="165.931" gradientUnits="userSpaceOnUse"><stop stop-color="#41A4FF" stop-opacity="0"/><stop offset=".104" stop-color="#41BBFF"/><stop offset=".865" stop-color="#000AFF"/><stop offset="1" stop-color="#000AFF" stop-opacity="0"/></linearGradient><filter id="filter0_dd" x="126.214" y="192.875" width="23.429" height="23.429" filterUnits="userSpaceOnUse" color-interpolation-filters="sRGB"><feFlood flood-opacity="0" result="BackgroundImageFix"/><feColorMatrix in="SourceAlpha" values="0 0 0 0 0 0 0 0 0 0 0 0 0 0 0 0 0 0 127 0" result="hardAlpha"/><feOffset dy="2.657"/><feGaussianBlur stdDeviation="2.657"/><feColorMatrix values="0 0 0 0 0.196487 0 0 0 0 0.196487 0 0 0 0 0.279476 0 0 0 0.06 0"/><feBlend mode="multiply" in2="BackgroundImageFix" result="effect1_dropShadow"/><feColorMatrix in="SourceAlpha" values="0 0 0 0 0 0 0 0 0 0 0 0 0 0 0 0 0 0 127 0" result="hardAlpha"/><feOffset dy="2.657"/><feGaussianBlur stdDeviation="1.328"/><feColorMatrix values="0 0 0 0 0.196487 0 0 0 0 0.196487 0 0 0 0 0.279476 0 0 0 0.06 0"/><feBlend mode="multiply" in2="effect1_dropShadow" result="effect2_dropShadow"/><feBlend in="SourceGraphic" in2="effect2_dropShadow" result="shape"/></filter><filter id="filter1_dd" x="370.627" y="156.794" width="23.429" height="23.429" filterUnits="userSpaceOnUse" color-interpolation-filters="sRGB"><feFlood flood-opacity="0" result="BackgroundImageFix"/><feColorMatrix in="SourceAlpha" values="0 0 0 0 0 0 0 0 0 0 0 0 0 0 0 0 0 0 127 0" result="hardAlpha"/><feOffset dy="2.657"/><feGaussianBlur stdDeviation="2.657"/><feColorMatrix values="0 0 0 0 0.196487 0 0 0 0 0.196487 0 0 0 0 0.279476 0 0 0 0.06 0"/><feBlend mode="multiply" in2="BackgroundImageFix" result="effect1_dropShadow"/><feColorMatrix in="SourceAlpha" values="0 0 0 0 0 0 0 0 0 0 0 0 0 0 0 0 0 0 127 0" result="hardAlpha"/><feOffset dy="2.657"/><feGaussianBlur stdDeviation="1.328"/><feColorMatrix values="0 0 0 0 0.196487 0 0 0 0 0.196487 0 0 0 0 0.279476 0 0 0 0.06 0"/><feBlend mode="multiply" in2="effect1_dropShadow" result="effect2_dropShadow"/><feBlend in="SourceGraphic" in2="effect2_dropShadow" result="shape"/></filter><filter id="filter2_dd" x="630.167" y="53.371" width="23.429" height="23.429" filterUnits="userSpaceOnUse" color-interpolation-filters="sRGB"><feFlood flood-opacity="0" result="BackgroundImageFix"/><feColorMatrix in="SourceAlpha" values="0 0 0 0 0 0 0 0 0 0 0 0 0 0 0 0 0 0 127 0" result="hardAlpha"/><feOffset dy="2.657"/><feGaussianBlur stdDeviation="2.657"/><feColorMatrix values="0 0 0 0 0.196487 0 0 0 0 0.196487 0 0 0 0 0.279476 0 0 0 0.06 0"/><feBlend mode="multiply" in2="BackgroundImageFix" result="effect1_dropShadow"/><feColorMatrix in="SourceAlpha" values="0 0 0 0 0 0 0 0 0 0 0 0 0 0 0 0 0 0 127 0" result="hardAlpha"/><feOffset dy="2.657"/><feGaussianBlur stdDeviation="1.328"/><feColorMatrix values="0 0 0 0 0.196487 0 0 0 0 0.196487 0 0 0 0 0.279476 0 0 0 0.06 0"/><feBlend mode="multiply" in2="effect1_dropShadow" result="effect2_dropShadow"/><feBlend in="SourceGraphic" in2="effect2_dropShadow" result="shape"/></filter><radialGradient id="paint1_radial" cx="0" cy="0" r="1" gradientUnits="userSpaceOnUse" gradientTransform="matrix(0 70.9958 -244.412 0 259.554 166.434)"><stop stop-color="#000AFF"/><stop offset="1" stop-opacity="0"/></radialGradient><radialGradient id="paint2_radial" cx="0" cy="0" r="1" gradientUnits="userSpaceOnUse" gradientTransform="matrix(0 35 -136 0 69 203)"><stop stop-color="#FF7441"/><stop offset="1" stop-opacity="0"/></radialGradient></defs></svg>