<svg width="84" height="40" fill="none" xmlns="http://www.w3.org/2000/svg"><g filter="url(#filter0_b)"><path fill-rule="evenodd" clip-rule="evenodd" d="M43.508 39.245a2.433 2.433 0 01-3.525 0l-1.053-1.037c-.858-.845-1.288-1.268-1.787-1.57a4.98 4.98 0 00-1.428-.585c-.568-.135-1.17-.135-2.375-.135H9.79c-3.405 0-4.639-.284-5.883-.817-1.245-.534-2.221-1.317-2.887-2.315C.354 31.788 0 30.8 0 28.07V7.849c0-2.73.354-3.72 1.02-4.717.665-.998 1.642-1.78 2.887-2.314C5.15.284 6.385 0 9.789 0h64.422c3.404 0 4.638.284 5.882.818 1.245.533 2.221 1.316 2.887 2.314C83.646 4.13 84 5.12 84 7.85v20.22c0 2.73-.354 3.72-1.02 4.717-.666.998-1.642 1.781-2.887 2.315-1.244.533-2.478.817-5.882.817H51.629c-.65 0-.975 0-1.289.02a9.962 9.962 0 00-5.9 2.417c-.237.206-.47.434-.932.89z" fill="url(#paint0_linear)" fill-opacity=".7"/><path d="M43.1 38.83l-.006.005-.005.005c-.744.77-1.943.77-2.687 0l-.005-.005-.006-.005-1.052-1.036-.057-.057c-.805-.792-1.28-1.26-1.838-1.597a5.562 5.562 0 00-1.594-.653c-.635-.15-1.301-.15-2.43-.15H9.79c-3.37 0-4.513-.282-5.654-.771-1.155-.495-2.037-1.21-2.632-2.103a4.43 4.43 0 01-.678-1.522C.67 30.292.582 29.415.582 28.07V7.849c0-1.345.088-2.223.244-2.872a4.43 4.43 0 01.678-1.522c.595-.892 1.477-1.607 2.632-2.102C5.276.863 6.42.582 9.789.582h64.422c3.368 0 4.513.282 5.653.77 1.155.496 2.037 1.21 2.632 2.103.303.455.525.89.678 1.522.156.65.244 1.527.244 2.872v20.22c0 1.346-.088 2.223-.244 2.872a4.427 4.427 0 01-.678 1.522c-.595.892-1.477 1.608-2.632 2.103-1.14.489-2.285.77-5.653.77H51.605c-.628 0-.97 0-1.301.021a10.545 10.545 0 00-6.246 2.558c-.25.218-.494.458-.942.898l-.017.017z" stroke="#fff" stroke-opacity=".1" stroke-width="1.164"/></g><defs><linearGradient id="paint0_linear" x1="92.282" y1="-5.5" x2="-5.549" y2="45.138" gradientUnits="userSpaceOnUse"><stop stop-color="#FFC34E"/><stop offset="1" stop-color="#FF3737"/></linearGradient><filter id="filter0_b" x="-5.819" y="-5.819" width="95.639" height="51.639" filterUnits="userSpaceOnUse" color-interpolation-filters="sRGB"><feFlood flood-opacity="0" result="BackgroundImageFix"/><feGaussianBlur in="BackgroundImage" stdDeviation="2.91"/><feComposite in2="SourceAlpha" operator="in" result="effect1_backgroundBlur"/><feBlend in="SourceGraphic" in2="effect1_backgroundBlur" result="shape"/></filter></defs></svg>