<svg width="69" height="40" fill="none" xmlns="http://www.w3.org/2000/svg"><g filter="url(#filter0_b)"><path fill-rule="evenodd" clip-rule="evenodd" d="M35.739 39.245c-.8 1.007-2.096 1.007-2.896 0l-.386-.463c-.878-1.053-1.317-1.58-1.856-1.957a4.981 4.981 0 00-1.571-.736c-.636-.17-1.321-.17-2.692-.17H8.041c-2.796 0-3.81-.285-4.832-.818a5.633 5.633 0 01-2.371-2.315C.29 31.788 0 30.8 0 28.07V7.849c0-2.73.291-3.72.838-4.717A5.633 5.633 0 013.209.818C4.231.284 5.245 0 8.041 0H60.96c2.796 0 3.81.284 4.832.818a5.634 5.634 0 012.371 2.314C68.71 4.13 69 5.12 69 7.85v20.22c0 2.73-.291 3.72-.838 4.717a5.634 5.634 0 01-2.371 2.315c-1.022.533-2.036.817-4.832.817H42.846a9.258 9.258 0 00-7.107 3.327z" fill="url(#paint0_linear)" fill-opacity=".7"/><path d="M35.292 38.872l-.005.005-.004.006c-.302.38-.665.535-.992.535-.328 0-.69-.155-.992-.535l-.004-.006-.005-.005-.386-.463-.059-.07c-.822-.986-1.307-1.568-1.909-1.99a5.562 5.562 0 00-1.755-.822c-.71-.19-1.468-.19-2.751-.19H8.04c-2.75 0-3.658-.28-4.563-.752a5.05 5.05 0 01-2.13-2.078c-.48-.878-.766-1.757-.766-4.437V7.849c0-2.68.285-3.56.766-4.437a5.052 5.052 0 012.13-2.078C4.383.86 5.291.582 8.041.582H60.96c2.75 0 3.658.28 4.563.752a5.051 5.051 0 012.13 2.078c.48.877.766 1.756.766 4.437v20.22c0 2.681-.285 3.56-.766 4.438a5.05 5.05 0 01-2.13 2.078c-.905.472-1.813.751-4.563.751H42.846a9.84 9.84 0 00-7.554 3.536z" stroke="#fff" stroke-opacity=".1" stroke-width="1.164"/></g><defs><linearGradient id="paint0_linear" x1="66.621" y1="-.111" x2="-39.837" y2="34.938" gradientUnits="userSpaceOnUse"><stop stop-color="#F51D46"/><stop offset=".692" stop-color="#45BED1"/></linearGradient><filter id="filter0_b" x="-5.819" y="-5.819" width="80.639" height="51.639" filterUnits="userSpaceOnUse" color-interpolation-filters="sRGB"><feFlood flood-opacity="0" result="BackgroundImageFix"/><feGaussianBlur in="BackgroundImage" stdDeviation="2.91"/><feComposite in2="SourceAlpha" operator="in" result="effect1_backgroundBlur"/><feBlend in="SourceGraphic" in2="effect1_backgroundBlur" result="shape"/></filter></defs></svg>