<svg width="102" height="56" viewBox="0 0 102 56" fill="none" xmlns="http://www.w3.org/2000/svg">
<path d="M0.321324 45.1642C0.217296 44.8206 0.411487 44.4577 0.755066 44.3537L6.35404 42.6584C6.69762 42.5544 7.06048 42.7486 7.16451 43.0921C7.26855 43.4357 7.07435 43.7986 6.73077 43.9026L1.75391 45.4095L3.26083 50.3864C3.36486 50.73 3.17066 51.0929 2.82709 51.1969C2.48351 51.3009 2.12065 51.1067 2.01661 50.7631L0.321324 45.1642ZM101.563 1.03217C99.5657 41.3429 51.9986 73.0363 0.63673 45.5489L1.25013 44.4027C51.8881 71.5027 98.321 40.1962 100.265 0.96783L101.563 1.03217Z" fill="white"/>
</svg>
