<svg width="32" height="44" fill="none" xmlns="http://www.w3.org/2000/svg"><g opacity=".3" fill="#fff"><path d="M13.187 17.248l-.212-.212c-.16-.16-.437-.047-.437.179v3.027c0 .14.116.254.257.254h3.053a.253.253 0 00.18-.433.251.251 0 010-.358l3.248-3.23c.1-.099.1-.259 0-.358l-.296-.293a.253.253 0 01.18-.432h3.052c.141 0 .257.113.257.253v3.027c0 .226-.277.339-.438.18l-.206-.204a.25.25 0 00-.36 0l-5.475 5.427a.257.257 0 01-.361 0L8.93 17.432c-.1-.1-.1-.26 0-.36l9.273-9.196c.1-.099.1-.26 0-.359l-2.18-2.162a.258.258 0 00-.362 0L3.657 17.261c-.1.099-.1.26 0 .359l12.002 11.903a.26.26 0 00.363 0L28.024 17.62c.1-.1.1-.26 0-.359l-7.061-7.003a.258.258 0 00-.362 0l-7.05 6.99c-.101.1-.263.1-.364 0zm9.295 20.298a.653.653 0 00-.475.197.639.639 0 00-.199.466c0 .274.14.488.419.64.305.083.55.029.735-.159.134-.132.2-.29.2-.475a.627.627 0 00-.2-.472.659.659 0 00-.48-.195v-.002zm-10.836-5.083h-.503a.391.391 0 00-.394.389v.278c-.534-.552-1.14-.828-1.817-.828-.78 0-1.432.289-1.952.864-.522.575-.78 1.294-.78 2.156 0 .877.259 1.611.779 2.198.525.575 1.187.862 1.99.862.635 0 1.228-.257 1.78-.77v.55c0 .268.22.485.488.485h.858v-5.739a.448.448 0 00-.45-.445zm-1.271 4.223c-.306.339-.707.508-1.204.508-.465 0-.85-.174-1.156-.525-.297-.346-.446-.796-.446-1.348 0-.515.153-.95.458-1.3.31-.347.695-.519 1.156-.519.489 0 .885.172 1.19.516.307.35.46.794.46 1.334s-.153.984-.46 1.335h.002v-.001zm-4.176-3.252v-.569a.403.403 0 00-.406-.401h-.53a.402.402 0 00-.405.4v.248a2.349 2.349 0 00-1.823-.81c-.834 0-1.506.313-2.013.934-.473.586-.71 1.3-.71 2.139 0 .862.255 1.582.764 2.156.504.569 1.151.85 1.942.85.694 0 1.308-.268 1.84-.808v.803c0 1.195-.49 1.791-1.47 1.791-.533 0-.937-.18-1.215-.538a1.143 1.143 0 01-.177-.34.475.475 0 00-.45-.316h-.508a.392.392 0 00-.382.487c.14.524.408.95.807 1.279.5.414 1.138.62 1.912.62.917 0 1.638-.299 2.163-.896a2.44 2.44 0 00.56-1.117c.031-.156.056-.34.074-.547.017-.206.026-.445.026-.718v-.836c-.375-.536-.564-1.176-.564-1.923 0-.734.188-1.361.564-1.888zM4.5 36.641c-.298.369-.702.553-1.215.553-.513 0-.914-.182-1.204-.55-.266-.334-.399-.764-.399-1.287 0-.533.133-.966.399-1.3.294-.374.695-.56 1.204-.56.476 0 .867.17 1.173.513.302.334.453.781.453 1.341 0 .524-.137.953-.411 1.289zm12.84-4.174v-.004h-2.78v-1.689a.394.394 0 00-.396-.392h-.543a.4.4 0 00-.4.397v1.684h-.573v1.239h.572v4.944h.764a.572.572 0 00.575-.57v-4.373h1.375a2.79 2.79 0 01.396-.569c.285-.309.622-.53 1.01-.667zm6.84-2.085a.84.84 0 00-.614.255.822.822 0 00-.256.602c0 .245.085.45.256.621a.85.85 0 00.62.254.82.82 0 00.613-.255.835.835 0 00.257-.614.81.81 0 00-.257-.608.847.847 0 00-.62-.256zm.271 2.733h-.486a.45.45 0 00-.452.448v4.22a.63.63 0 01.151.423.629.629 0 01-.151.426v.237h.862a.477.477 0 00.478-.475v-4.882a.4.4 0 00-.402-.398zm6.3.814c-.604-.586-1.339-.88-2.205-.88-.862 0-1.593.291-2.192.876-.6.581-.9 1.289-.9 2.12 0 .881.294 1.615.882 2.198.588.59 1.318.886 2.186.886.878 0 1.618-.29 2.222-.869.598-.584.9-1.305.9-2.168 0-.855-.298-1.576-.893-2.163zm-.949 3.51c-.313.335-.732.5-1.256.5-.521 0-.94-.167-1.257-.507-.31-.334-.466-.79-.466-1.365 0-.535.16-.972.477-1.31.319-.34.733-.509 1.246-.509.52 0 .94.17 1.256.508.314.334.471.781.471 1.34 0 .56-.158 1.007-.47 1.342v.002-.001z"/><path d="M17.842 37.206c-.276-.277-.43-.655-.466-1.128h3.842a.32.32 0 00.322-.313c0-.95-.246-1.691-.738-2.227-.497-.54-1.174-.81-2.026-.81-.845 0-1.525.278-2.037.834-.509.564-.762 1.3-.762 2.21 0 .917.262 1.654.785 2.209.366.386.815.636 1.347.752.223.052.454.08.688.076l2.74.059v-.14a.646.646 0 01-.175-.454.64.64 0 01.18-.448l.002-.169a241.48 241.48 0 00-2.65-.036c-.428 0-.78-.137-1.052-.414zm-.186-2.657a1.343 1.343 0 011.151-.62c.714 0 1.165.353 1.353 1.062h-2.695c.044-.165.108-.313.19-.443z"/></g></svg>