<svg width="51" height="44" fill="none" xmlns="http://www.w3.org/2000/svg"><g opacity=".3" clip-path="url(#clip0)" fill="#fff"><path d="M18.94 18.738v4.233h-4.291v-3.686a.555.555 0 00-.56-.549h-1.452v10.132c0 .303.25.549.56.549h1.452v-4.726h4.293v4.175a.554.554 0 00.55.557h1.462V19.285a.554.554 0 00-.56-.549h-1.455v.002zm8.52 2.648v5.078a1.3 1.3 0 01-.649 1.13c-1.137.643-2.315-.164-2.315-1.223v-4.436a.554.554 0 00-.56-.549h-1.452v5.167c.004 1.665 1.379 3.012 3.078 3.02h.825c1.701-.003 3.08-1.355 3.085-3.022v-4.616a.554.554 0 00-.56-.549h-1.453zm21.975 8.038h1.452V22.23a.555.555 0 00-.56-.548h-1.452v7.19a.554.554 0 00.556.552h.004zm1.481-9.181a1.092 1.092 0 00-.607-1.437 1.13 1.13 0 00-1.466.595 1.092 1.092 0 00.607 1.437 1.13 1.13 0 001.466-.595zm-16.256 1.14c-2.107 0-3.832 1.476-3.832 3.542v1.116c0 2.065 1.725 3.534 3.832 3.534 2.108 0 3.832-1.469 3.832-3.534v-1.116c.003-2.066-1.722-3.542-3.832-3.542zm1.812 4.791c0 .977-.815 1.627-1.814 1.627-.998 0-1.811-.65-1.811-1.627v-1.393c0-.977.815-1.627 1.811-1.627s1.813.65 1.813 1.627v1.393zm7.214-4.792a4.196 4.196 0 00-1.822.405v-2.491a.554.554 0 00-.56-.549h-1.452v7.294c0 2.065 1.724 3.533 3.832 3.533 2.107 0 3.832-1.468 3.832-3.534v-1.116c.002-2.065-1.718-3.542-3.83-3.542zm1.813 4.792c0 .977-.815 1.627-1.813 1.627-.996 0-1.811-.65-1.811-1.627V24.78c0-.976.815-1.627 1.81-1.627.997 0 1.814.65 1.814 1.627v1.394zm-38.944-6.56c0-2.152-1.07-4.006-1.885-4.607 0 0-.062-.034-.056.053-.067 4.158-2.235 5.285-3.426 6.801-2.749 3.504-.194 7.345 2.412 8.054 1.453.399-.337-.703-.568-3.027-.283-2.804 3.523-4.948 3.523-7.274z"/><path d="M7.801 21.032c-.017-.011-.04-.02-.056.008-.045.523-.59 1.642-1.281 2.671-2.346 3.487-1.01 5.169-.258 6.074.437.523 0 0 1.09-.536a4.81 4.81 0 002.35-3.724c.213-2.479-1.304-4.04-1.845-4.493z"/></g><defs><clipPath id="clip0"><path fill="#fff" d="M0 0h51v44H0z"/></clipPath></defs></svg>