<svg width="38" height="57" fill="none" xmlns="http://www.w3.org/2000/svg"><g opacity=".3" fill-rule="evenodd" clip-rule="evenodd"><path d="M36.95 42.608v.075h.07a.073.073 0 00.037-.01.033.033 0 00.014-.028.031.031 0 00-.014-.028.068.068 0 00-.038-.01h-.07v.001zm.07-.052c.03-.002.06.006.084.024.02.016.03.04.03.066a.076.076 0 01-.024.058.115.115 0 01-.067.027l.093.107h-.072l-.086-.106h-.028v.106h-.06v-.282h.131-.001zm-.019.379a.242.242 0 00.217-.144.24.24 0 000-.184.245.245 0 00-.125-.125.249.249 0 00-.185 0 .239.239 0 00-.076.05.241.241 0 000 .336.243.243 0 00.17.069v-.002zm0-.539a.313.313 0 01.286.187.3.3 0 01-.164.397.311.311 0 01-.408-.165.3.3 0 01.165-.398.307.307 0 01.122-.024v.003zm-28.61-1.089c0-.537.353-.98.93-.98.552 0 .924.424.924.98 0 .557-.372.98-.924.98-.577 0-.93-.442-.93-.98zm2.483 0v-1.53h-.667v.373c-.212-.276-.533-.448-.969-.448-.86 0-1.534.672-1.534 1.606s.674 1.606 1.534 1.606c.436 0 .757-.173.969-.448v.372h.666v-1.53zm22.532 0c0-.537.354-.98.93-.98.553 0 .925.424.925.98 0 .557-.372.98-.924.98-.577 0-.93-.442-.93-.98zm2.484 0V38.55h-.668v1.6c-.211-.275-.532-.447-.968-.447-.86 0-1.534.672-1.534 1.606s.674 1.606 1.534 1.606c.436 0 .757-.173.968-.448v.372h.668v-1.53zm-16.74-1.01c.43 0 .706.268.777.741h-1.592c.072-.441.34-.742.816-.742zm.014-.597c-.899 0-1.528.652-1.528 1.606 0 .973.654 1.607 1.573 1.607.461 0 .884-.115 1.257-.429l-.327-.493c-.257.205-.585.32-.892.32-.43 0-.821-.198-.918-.75h2.278c.006-.082.013-.165.013-.255-.007-.953-.598-1.606-1.457-1.606zm8.051 1.606c0-.538.353-.98.93-.98.552 0 .924.423.924.98 0 .557-.372.98-.924.98-.577 0-.93-.442-.93-.98zm2.483 0v-1.529h-.667v.373c-.212-.276-.532-.448-.968-.448-.86 0-1.535.672-1.535 1.606s.675 1.606 1.535 1.606c.436 0 .756-.173.968-.448v.372h.667v-1.532zm-6.25 0c0 .928.648 1.607 1.637 1.607.462 0 .77-.103 1.102-.365l-.32-.538a1.35 1.35 0 01-.803.276c-.533-.007-.924-.39-.924-.98 0-.589.391-.973.924-.98.29 0 .552.097.803.276l.32-.537c-.333-.263-.64-.365-1.102-.365-.989 0-1.636.678-1.636 1.606zm8.598-1.606c-.385 0-.635.18-.808.448v-.371h-.662v3.059h.668V41.12c0-.506.218-.787.654-.787a1.08 1.08 0 01.417.077l.206-.627a1.42 1.42 0 00-.475-.084zm-17.875.32c-.321-.21-.763-.32-1.25-.32-.778 0-1.278.372-1.278.98 0 .498.372.806 1.058.902l.315.045c.366.05.538.147.538.32 0 .236-.242.371-.699.371-.462 0-.795-.147-1.02-.32l-.313.519c.366.269.828.397 1.328.397.886 0 1.399-.416 1.399-.999 0-.537-.404-.819-1.072-.914l-.314-.046c-.289-.037-.52-.095-.52-.3 0-.224.218-.358.584-.358.391 0 .77.147.956.262l.289-.538h-.001zm8.604-.32c-.384 0-.635.18-.807.45v-.373h-.661v3.059h.667V41.12c0-.506.218-.787.654-.787.142-.002.284.024.416.077l.206-.627a1.42 1.42 0 00-.475-.084zm-5.69.077h-1.09v-.928h-.675v.928h-.622v.608h.622v1.396c0 .71.276 1.132 1.065 1.132.29 0 .623-.09.834-.237l-.192-.57a1.237 1.237 0 01-.59.174c-.334 0-.443-.205-.443-.512v-1.382h1.09v-.609zm-9.97 3.06v-1.92c0-.723-.463-1.21-1.207-1.216-.392-.007-.795.115-1.078.544-.211-.339-.545-.544-1.013-.544-.328 0-.648.096-.899.454v-.378h-.667v3.059h.672V41.14c0-.531.296-.813.752-.813.442 0 .667.288.667.806v1.703h.674v-1.697c0-.53.307-.813.75-.813.455 0 .673.288.673.807v1.702l.675.002zM37.33 32.66v-.447h-.117l-.135.307-.135-.307h-.117v.448h.083v-.337l.126.29h.086l.127-.291v.338h.082zm-.741 0v-.37h.149v-.075h-.382v.075h.15v.37h.083zm-12.534 1.92H13.95V16.462h10.106v18.116z" fill="#fff"/><path d="M14.592 25.522c0-3.675 1.725-6.949 4.411-9.059A11.52 11.52 0 0011.866 14C5.487 14 .316 19.158.316 25.522c0 6.363 5.171 11.521 11.55 11.521a11.521 11.521 0 007.137-2.463 11.493 11.493 0 01-4.411-9.058z" fill="#fff"/><path d="M37.692 25.522c0 6.363-5.171 11.521-11.55 11.521a11.525 11.525 0 01-7.138-2.463 11.49 11.49 0 004.412-9.058c0-3.675-1.725-6.949-4.412-9.059A11.524 11.524 0 0126.142 14c6.379 0 11.55 5.158 11.55 11.522" fill="#8C8C8C"/></g></svg>