<svg width="58" height="57" fill="none" xmlns="http://www.w3.org/2000/svg"><path fill-rule="evenodd" clip-rule="evenodd" d="M29.983 25.181c-.033 2.564 2.29 3.995 4.04 4.846 1.799.873 2.403 1.433 2.396 2.213-.014 1.195-1.435 1.722-2.764 1.742-2.32.036-3.669-.624-4.742-1.124l-.835 3.9c1.076.495 3.068.927 5.134.946 4.85 0 8.022-2.388 8.039-6.09.019-4.699-6.515-4.959-6.47-7.059.015-.637.624-1.316 1.959-1.49.66-.086 2.484-.153 4.552.797l.812-3.774c-1.112-.404-2.542-.791-4.32-.791-4.565 0-7.776 2.42-7.801 5.884zm19.92-5.559c-.886 0-1.632.515-1.965 1.306L41.01 37.426h4.845l.965-2.658h5.921l.56 2.658h4.27l-3.727-17.804h-3.942zm.677 4.81l1.399 6.685h-3.83l2.431-6.685zm-26.473-4.81l-3.82 17.804h4.618l3.818-17.804h-4.616zm-6.83 0L12.47 31.74l-1.944-10.304c-.228-1.15-1.129-1.814-2.13-1.814H.54l-.11.517c1.613.35 3.445.912 4.555 1.515.68.368.874.69 1.097 1.564l3.682 14.208h4.88l7.481-17.804h-4.849z" fill="#fff" opacity=".3"/></svg>