<svg width="60" height="44" fill="none" xmlns="http://www.w3.org/2000/svg"><g opacity=".3" clip-path="url(#clip0)" fill="#fff"><path d="M53.723 19l3.14-3.019L60.001 19l-3.14 3.019L53.722 19zm-39.743-.005h-1.8l-.18.173-1.8 5.942-2.04-5.942-.18-.173H6.12l-.18.173-1.98 5.942-.06-.058-1.8-5.884-.18-.173H.12l-.12.173 2.82 8.423.18.173h1.8l.18-.173 2.04-6.058 2.04 6.058.24.173h1.74l.24-.173 2.82-8.423-.12-.173zm19.92 0h-1.74l-.24.173-2.46 6.23-2.46-6.23-.24-.173h-1.8l-.12.173 3.54 8.423.24.173h1.62l.18-.173 3.6-8.423-.12-.173zm9.12 4.845l.18-.173v-.23c0-1.385-.42-2.539-1.2-3.347-.78-.807-1.86-1.211-3.18-1.211-1.26 0-2.34.461-3.12 1.327-.84.865-1.2 1.961-1.2 3.173 0 1.27.42 2.365 1.26 3.23.84.866 1.92 1.27 3.3 1.27.96 0 1.8-.23 2.46-.692.66-.462 1.38-1.154 1.62-2.193l-.12-.173h-1.68l-.24.173c-.42.808-1.02 1.154-2.1 1.154-.66 0-1.26-.23-1.8-.692-.48-.404-.78-.98-.84-1.673l6.66.057zm-6.54-1.557c.3-1.039 1.2-1.789 2.34-1.789 1.56 0 2.22 1.039 2.4 1.789h-4.74zm-14.52-3.289l-.18.173v.866l-.06.057c-.24-.288-.54-.519-.9-.75a.463.463 0 00-.24-.115c-.48-.23-1.08-.346-1.68-.346-1.14 0-2.16.461-3 1.327-.84.865-1.26 1.961-1.26 3.23 0 1.27.42 2.366 1.26 3.231.84.866 1.86 1.327 3 1.327.6 0 1.14-.115 1.68-.346.12-.058.18-.115.3-.115.36-.231.66-.462.9-.693h.06v.924l.18.173h1.5l.18-.174v-8.596l-.18-.173h-1.56zm-.9 6.462c-.48.52-1.14.75-1.86.75-.72 0-1.26-.23-1.74-.808-.54-.52-.78-1.211-.78-2.077 0-.865.24-1.558.78-2.077.54-.519 1.02-.807 1.74-.807s1.32.23 1.86.75c.36.346.54.75.66 1.269v1.673c-.12.577-.36.98-.66 1.327zm28.38-2.769s-1.02-.174-1.8-.404c-.72-.173-1.14-.404-1.14-.866 0-.519.54-.98 1.68-.98s1.8.461 1.8.923l.18.173h1.68l.12-.173c0-1.154-1.02-2.481-3.72-2.481-2.82 0-3.66 1.558-3.66 2.596 0 .865.3 1.846 2.46 2.308 0 0 1.02.23 1.86.404.96.173 1.32.519 1.32 1.038 0 .462-.48 1.038-1.8 1.038-1.2 0-1.92-.576-1.98-1.211l-.18-.173h-1.68l-.12.173c.12 1.442 1.26 2.827 3.96 2.827 3.06 0 3.66-1.789 3.66-2.712 0-1.269-.72-2.077-2.64-2.48z"/></g><defs><clipPath id="clip0"><path fill="#fff" d="M0 0h60v44H0z"/></clipPath></defs></svg>