<svg width="38" height="44" fill="none" xmlns="http://www.w3.org/2000/svg"><g opacity=".3"><path d="M2.145 10h7.188l8.353 12.244-4.026.895-3.347-.895L2.145 10z" fill="#CFCFCF"/><path d="M1.77 34.487h7.187l8.73-12.243h-7.373L1.77 34.487z" fill="#fff"/><path d="M12.695 10h7.19l8.35 12.244-3.949.945-3.431-.945L12.695 10z" fill="#CFCFCF"/><path d="M29.226 10h7.19l-6.546 9.875-3.69-5.406L29.226 10z" fill="#fff"/><path d="M23.133 10h2.77l-1.364 2.059L23.133 10z" fill="#CFCFCF"/><path d="M29.645 34.487h7.189l-6.938-9.99-3.716 5.162 3.465 4.828z" fill="#fff"/><path d="M22.707 34.486h3.607l-1.782-2.535-1.825 2.535z" fill="#CFCFCF"/><path d="M12.321 34.487h7.114l8.803-12.243h-7.38L12.32 34.487z" fill="#fff"/></g></svg>