<svg width="137" height="20" fill="none" xmlns="http://www.w3.org/2000/svg"><path d="M0 19.204v-18.2h3.952L9.75 12.548l5.72-11.544h3.952v18.2h-3.328V6.646l-5.07 9.958H8.398l-5.07-9.958v12.558H0zm28.543.312c-1.248 0-2.374-.286-3.38-.858a6.454 6.454 0 01-2.366-2.366c-.572-1.023-.858-2.201-.858-3.536s.295-2.505.884-3.51a6.397 6.397 0 012.366-2.392c1.006-.572 2.132-.858 3.38-.858 1.23 0 2.34.286 3.328.858a6.154 6.154 0 012.366 2.392c.59 1.005.884 2.175.884 3.51s-.294 2.513-.884 3.536a6.204 6.204 0 01-2.366 2.366c-1.005.572-2.123.858-3.354.858zm0-2.886c.867 0 1.62-.32 2.262-.962.642-.659.962-1.63.962-2.912 0-1.283-.32-2.245-.962-2.886-.641-.659-1.386-.988-2.236-.988-.884 0-1.646.33-2.288.988-.624.641-.936 1.603-.936 2.886 0 1.283.312 2.253.936 2.912.642.641 1.396.962 2.262.962zm9.06 2.574V6.308h2.938l.26 2.184a4.56 4.56 0 011.716-1.82c.762-.45 1.655-.676 2.678-.676 1.594 0 2.834.503 3.718 1.508.884 1.005 1.326 2.479 1.326 4.42v7.28H46.91v-6.968c0-1.11-.226-1.959-.676-2.548-.451-.59-1.153-.884-2.106-.884-.936 0-1.708.33-2.314.988-.59.659-.884 1.577-.884 2.756v6.656h-3.328zm21.487.312c-1.249 0-2.376-.286-3.38-.858a6.454 6.454 0 01-2.367-2.366c-.572-1.023-.858-2.201-.858-3.536s.295-2.505.884-3.51a6.397 6.397 0 012.366-2.392c1.005-.572 2.132-.858 3.38-.858 1.23 0 2.34.286 3.328.858a6.154 6.154 0 012.366 2.392c.59 1.005.884 2.175.884 3.51s-.295 2.513-.884 3.536a6.205 6.205 0 01-2.366 2.366c-1.005.572-2.123.858-3.354.858zm0-2.886c.866 0 1.62-.32 2.261-.962.641-.659.962-1.63.962-2.912 0-1.283-.32-2.245-.962-2.886-.641-.659-1.387-.988-2.236-.988-.884 0-1.647.33-2.288.988-.624.641-.936 1.603-.936 2.886 0 1.283.312 2.253.936 2.912.641.641 1.395.962 2.262.962zm13.375 2.574V3.682H67.16V1.004h13.962v2.678h-5.33v15.522h-3.328zm14.377.312c-1.248 0-2.375-.286-3.38-.858a6.454 6.454 0 01-2.366-2.366c-.572-1.023-.858-2.201-.858-3.536s.295-2.505.884-3.51a6.397 6.397 0 012.366-2.392c1.005-.572 2.132-.858 3.38-.858 1.23 0 2.34.286 3.328.858a6.154 6.154 0 012.366 2.392c.59 1.005.884 2.175.884 3.51s-.295 2.513-.884 3.536a6.204 6.204 0 01-2.366 2.366c-1.005.572-2.123.858-3.354.858zm0-2.886c.867 0 1.62-.32 2.262-.962.641-.659.962-1.63.962-2.912 0-1.283-.32-2.245-.962-2.886-.641-.659-1.387-.988-2.236-.988-.884 0-1.647.33-2.288.988-.624.641-.936 1.603-.936 2.886 0 1.283.312 2.253.936 2.912.641.641 1.395.962 2.262.962zm9.06 2.574V.484h3.328v11.05l4.576-5.226h3.952l-5.278 5.876 6.136 7.02h-4.16L99.23 12.73v6.474h-3.328zm19.457.312c-1.3 0-2.453-.277-3.458-.832a6.018 6.018 0 01-2.366-2.34c-.572-1.005-.858-2.167-.858-3.484 0-1.335.277-2.522.832-3.562.572-1.04 1.352-1.846 2.34-2.418 1.005-.59 2.184-.884 3.536-.884 1.265 0 2.383.277 3.354.832a5.866 5.866 0 012.262 2.288c.554.953.832 2.02.832 3.198 0 .19-.009.39-.026.598 0 .208-.009.425-.026.65h-9.802c.069 1.005.416 1.794 1.04 2.366.641.572 1.412.858 2.314.858.676 0 1.239-.147 1.69-.442a2.88 2.88 0 001.04-1.196h3.38a6.159 6.159 0 01-1.222 2.236 5.877 5.877 0 01-2.08 1.56c-.815.381-1.742.572-2.782.572zm.026-10.816c-.815 0-1.534.234-2.158.702-.624.45-1.023 1.144-1.196 2.08h6.422c-.052-.85-.364-1.525-.936-2.028-.572-.503-1.283-.754-2.132-.754zm8.727 10.504V6.308h2.938l.26 2.184c.398-.763.97-1.37 1.716-1.82.762-.45 1.655-.676 2.678-.676 1.594 0 2.834.503 3.718 1.508.884 1.005 1.326 2.479 1.326 4.42v7.28h-3.328v-6.968c0-1.11-.226-1.959-.676-2.548-.451-.59-1.153-.884-2.106-.884-.936 0-1.708.33-2.314.988-.59.659-.884 1.577-.884 2.756v6.656h-3.328z" fill="#fff"/></svg>